<?xml version="1.0" standalone="no"?>
<!DOCTYPE svg PUBLIC "-//W3C//DTD SVG 20010904//EN"
 "http://www.w3.org/TR/2001/REC-SVG-20010904/DTD/svg10.dtd">
<svg version="1.0" xmlns="http://www.w3.org/2000/svg"
 width="463.000000pt" height="463.000000pt" viewBox="0 0 463.000000 463.000000"
 preserveAspectRatio="xMidYMid meet">
<metadata>
Created by potrace 1.14, written by Peter Selinger 2001-2017
</metadata>
<g transform="translate(0.000000,463.000000) scale(0.100000,-0.100000)"
fill="#000000" stroke="none">
<path d="M1860 4615 c-377 -54 -645 -189 -842 -425 -140 -169 -259 -444 -333
-775 -19 -82 -36 -167 -39 -187 -3 -21 -9 -55 -12 -75 -3 -21 -7 -45 -9 -53
-2 -8 -7 -49 -11 -90 -3 -41 -8 -77 -9 -80 -2 -3 -7 -44 -10 -90 -4 -47 -9
-101 -11 -120 -21 -216 -21 -778 0 -1020 11 -113 18 -183 27 -245 5 -38 12
-88 14 -110 3 -22 10 -60 14 -85 43 -211 45 -230 32 -265 -16 -44 -10 -71 41
-188 103 -239 177 -359 304 -489 141 -145 306 -226 566 -278 164 -33 374 -43
530 -25 35 4 81 9 103 11 85 9 292 57 413 96 314 100 534 207 797 386 308 211
506 437 586 670 77 223 44 537 -80 767 -44 82 -55 96 -131 176 -93 96 -207
155 -479 244 l-114 38 34 29 c144 123 230 237 334 444 184 365 209 698 73 968
-121 240 -329 430 -633 577 -177 86 -420 161 -595 183 -25 3 -56 9 -70 12 -52
12 -406 11 -490 -1z m390 -229 c94 -7 108 -9 230 -32 214 -41 438 -131 605
-243 97 -65 109 -75 185 -151 136 -137 216 -293 224 -440 14 -268 -150 -665
-354 -855 -186 -174 -228 -220 -240 -264 -15 -57 0 -101 51 -145 32 -27 83
-48 257 -105 281 -93 363 -132 433 -209 156 -168 218 -492 137 -710 -120 -322
-667 -720 -1218 -886 -109 -33 -297 -73 -380 -82 -36 -3 -83 -9 -105 -13 -49
-8 -257 -7 -345 3 -78 8 -244 48 -297 71 -21 9 -49 22 -63 28 -50 23 -136 86
-187 137 -110 111 -224 307 -216 370 3 21 -6 72 -21 125 -24 83 -48 189 -61
267 -3 18 -8 40 -10 48 -2 8 -6 38 -10 65 -3 28 -10 80 -15 116 -30 214 -44
447 -44 734 0 191 10 476 19 526 2 13 6 56 9 94 6 76 15 155 21 195 2 14 11
70 20 125 44 286 112 513 212 705 92 178 210 302 369 387 83 44 234 99 300
108 21 4 47 8 56 11 38 11 68 15 173 21 61 3 111 7 113 8 1 1 17 1 35 -1 17
-1 70 -5 117 -8z"/>
<path d="M2048 2738 c-69 -43 -82 -98 -43 -184 29 -63 91 -271 100 -337 4 -23
8 -174 11 -336 5 -320 8 -337 64 -366 50 -26 95 -19 138 19 l37 34 1 239 c0
302 -9 420 -46 578 -38 165 -99 316 -138 341 -46 30 -87 34 -124 12z"/>
</g>
</svg>
